<svg width="181" height="143" viewBox="0 0 181 143" fill="none" xmlns="http://www.w3.org/2000/svg">
<g filter="url(#filter0_d_115_76)">
<path d="M6.12859 89.8462C2.59255 100.313 7.9325 111.419 14.2984 119.722C18.9442 125.782 26.8107 130.255 34.1423 132.077C44.3038 134.602 54.3209 132.902 63.3174 127.612C71.4339 122.839 77.3148 114.818 81.4592 106.506C86.5588 96.2785 90.1913 84.3791 89.2686 72.8458C88.7257 66.0588 86.0319 58.0194 79.2966 55.0443C73.464 52.468 67.6433 54.6078 63.4375 59.0091C58.4281 64.2516 54.99 71.3523 53.4255 78.3924C51.4074 87.4739 53.3207 96.4871 56.9898 104.904C64.8188 122.865 81.4522 134.777 101.503 131.376C124.14 127.537 143.83 108.997 152.465 88.2843C157.481 76.2509 159.847 63.2239 161.395 50.3387C162.058 44.8249 162.573 39.2891 161.836 33.7587C161.571 31.7706 161.248 29.8514 161.115 27.8516" stroke="#FF5F6D" stroke-width="2" stroke-dasharray="6 6"/>
<path d="M159.096 16.9371L163.065 28.0277C163.11 28.1552 163.189 28.2685 163.292 28.3561C163.396 28.4436 163.52 28.5025 163.653 28.5266L174.928 30.5629C175.967 30.7641 176.71 29.5813 176.074 28.7336L157.48 3.87319C157.351 3.7014 157.177 3.56882 156.977 3.49028C156.778 3.41174 156.56 3.39034 156.349 3.42846C156.137 3.46659 155.941 3.56274 155.781 3.70616C155.621 3.84959 155.505 4.03463 155.444 4.24058L146.712 34.0324C146.415 35.0486 147.524 35.8971 148.426 35.3455L158.277 29.4952C158.394 29.426 158.49 29.3273 158.556 29.2092C158.622 29.091 158.656 28.9575 158.654 28.8221L158.496 17.0438C158.495 16.9704 158.519 16.8989 158.566 16.8421C158.612 16.7853 158.678 16.747 158.75 16.7339C158.822 16.7209 158.897 16.7341 158.96 16.771C159.023 16.808 159.072 16.8663 159.096 16.9356L159.096 16.9371Z" fill="#FF5F6D"/>
</g>
<defs>
<filter id="filter0_d_115_76" x="0.0198975" y="3.41006" width="180.29" height="138.816" filterUnits="userSpaceOnUse" color-interpolation-filters="sRGB">
<feFlood flood-opacity="0" result="BackgroundImageFix"/>
<feColorMatrix in="SourceAlpha" type="matrix" values="0 0 0 0 0 0 0 0 0 0 0 0 0 0 0 0 0 0 127 0" result="hardAlpha"/>
<feOffset dy="4"/>
<feGaussianBlur stdDeviation="2"/>
<feComposite in2="hardAlpha" operator="out"/>
<feColorMatrix type="matrix" values="0 0 0 0 0 0 0 0 0 0 0 0 0 0 0 0 0 0 0.25 0"/>
<feBlend mode="normal" in2="BackgroundImageFix" result="effect1_dropShadow_115_76"/>
<feBlend mode="normal" in="SourceGraphic" in2="effect1_dropShadow_115_76" result="shape"/>
</filter>
</defs>
</svg>
