<svg width="22" height="31" viewBox="0 0 22 31" fill="none" xmlns="http://www.w3.org/2000/svg">
<path fill-rule="evenodd" clip-rule="evenodd" d="M10.9994 0C8.99617 0 7.11407 0.553073 5.49581 1.49602C5.37796 1.55984 5.27414 1.6467 5.19052 1.75144C5.1069 1.85617 5.04519 1.97665 5.00905 2.10571C4.97291 2.23476 4.96308 2.36977 4.98014 2.5027C4.9972 2.63563 5.04081 2.76378 5.10837 2.87952C5.17593 2.99527 5.26607 3.09626 5.37343 3.17648C5.48079 3.2567 5.60318 3.31453 5.73333 3.34652C5.86347 3.37852 5.99872 3.38402 6.13104 3.36271C6.26336 3.34141 6.39004 3.29372 6.50357 3.22249C7.83397 2.44727 9.36259 1.9999 10.9994 1.9999C15.9527 1.9999 19.999 6.04616 19.999 10.9994C19.999 13.3479 18.867 15.5066 17.2979 17.5987C15.7318 19.6868 13.708 21.7045 11.7064 23.7058C11.3077 24.1045 10.6912 24.1045 10.2924 23.7058C8.29089 21.7045 6.26702 19.6868 4.70093 17.5987C3.13186 15.5066 1.9999 13.3479 1.9999 10.9994C1.9999 9.3626 2.44726 7.83397 3.22249 6.50357C3.29372 6.39004 3.34141 6.26336 3.36271 6.13104C3.38402 5.99872 3.37851 5.86347 3.34652 5.73333C3.31453 5.60318 3.2567 5.48079 3.17648 5.37343C3.09625 5.26607 2.99527 5.17593 2.87952 5.10837C2.76378 5.04081 2.63563 4.9972 2.5027 4.98014C2.36977 4.96308 2.23476 4.97291 2.10571 5.00905C1.97665 5.04519 1.85617 5.1069 1.75144 5.19052C1.6467 5.27414 1.55984 5.37796 1.49602 5.49581C0.553046 7.11408 0 8.99616 0 10.9994C0 13.984 1.41268 16.5488 3.09945 18.7979C4.78919 21.0509 6.87996 23.1215 8.87844 25.1198C10.0415 26.2827 11.9573 26.2827 13.1204 25.1198C15.1189 23.1215 17.2097 21.0509 18.8994 18.7979C20.5862 16.5488 21.9989 13.984 21.9989 10.9994C21.9989 4.95492 17.0439 0 10.9994 0ZM10.9955 5.99774C8.24609 5.99774 5.99774 8.25196 5.99773 11.0014C5.99772 13.7508 8.24607 15.9992 10.9955 15.9992C13.745 15.9992 16.0011 13.7508 16.0011 11.0014C16.0011 8.25196 13.745 5.99774 10.9955 5.99774ZM10.9955 7.99763C12.6641 7.99763 14.0012 9.33281 14.0012 11.0014C14.0012 12.67 12.6641 13.9993 10.9955 13.9993C9.3269 13.9993 7.99957 12.67 7.99958 11.0014C7.99959 9.33281 9.32691 7.99763 10.9955 7.99763ZM6.90198 28.0005C6.90133 28.0011 6.90068 28.0018 6.90003 28.0025C6.63898 28.0218 6.39587 28.1426 6.22276 28.3389C6.04964 28.5353 5.96029 28.7916 5.97382 29.053C5.98735 29.3144 6.10269 29.5602 6.29515 29.7376C6.48761 29.915 6.74189 30.0101 7.00354 30.0023H14.9973C15.1305 30.0053 15.2629 29.9817 15.3869 29.9328C15.5108 29.8839 15.6237 29.8107 15.719 29.7175C15.8142 29.6244 15.8899 29.5131 15.9416 29.3903C15.9933 29.2675 16.0199 29.1356 16.0199 29.0024C16.0199 28.8692 15.9933 28.7373 15.9416 28.6145C15.8899 28.4917 15.8142 28.3804 15.719 28.2873C15.6237 28.1941 15.5108 28.1209 15.3869 28.072C15.2629 28.0231 15.1305 27.9995 14.9973 28.0025H7.00354C6.96974 28.0001 6.93585 27.9994 6.90198 28.0005Z" fill="url(#paint0_linear_213_359)"/>
<defs>
<linearGradient id="paint0_linear_213_359" x1="10.9994" y1="0" x2="10.9994" y2="30.0028" gradientUnits="userSpaceOnUse">
<stop stop-color="#FF5F6D"/>
<stop offset="1" stop-color="#FFC371"/>
</linearGradient>
</defs>
</svg>
